<svg width="1419" height="575" viewBox="0 0 1419 575" fill="none" xmlns="http://www.w3.org/2000/svg">
<path d="M500.216 186.933C498.39 188.261 497.477 189.755 497.477 191.415C497.477 193.02 498.694 193.822 501.129 193.822C502.18 193.822 503.536 193.518 505.196 192.909H505.279C505.556 192.909 505.694 193.49 505.694 194.652C505.694 195.759 505.584 196.423 505.362 196.645C499.662 200.684 494.848 202.704 490.919 202.704C486.99 202.704 484.14 201.597 482.369 199.384C480.598 197.17 479.713 194.293 479.713 190.751C479.713 187.154 481.677 183.363 485.606 179.379C489.535 175.339 494.82 171.632 501.461 168.256C508.102 164.825 516.319 162.003 526.114 159.789C535.965 157.576 547.005 156.469 559.234 156.469C571.52 156.469 581.785 158.876 590.03 163.69C598.276 168.45 602.398 173.9 602.398 180.043C602.398 186.13 600.24 192.328 595.924 198.637C591.663 204.945 586.295 210.451 579.82 215.155C573.401 219.804 566.262 223.622 558.404 226.61C550.546 229.599 543.518 231.093 537.32 231.093C531.122 231.093 526.308 228.603 522.877 223.622C514.465 236.848 508.766 245.896 505.777 250.766C502.789 255.58 500.243 259.647 498.141 262.968C496.093 266.233 494.488 268.806 493.326 270.688C492.219 272.569 491.638 273.537 491.583 273.593C490.421 274.866 489.176 275.502 487.848 275.502L483.78 276.249L481.788 276.083H480.377C477.112 276.083 475.479 275.059 475.479 273.012C475.479 270.411 480.93 260.616 491.832 243.627C502.734 226.638 512.999 211.226 522.628 197.392C532.312 183.557 537.957 175.782 539.562 174.066C541.166 172.351 542.577 171.355 543.795 171.078C545.068 170.746 547.088 170.58 549.854 170.58H554.005C554.724 170.58 555.084 171.161 555.084 172.323C555.084 173.43 554.946 174.205 554.669 174.647C549.799 181.454 541 194.901 528.272 214.989C528.715 215.875 529.435 216.428 530.431 216.649C531.482 216.871 532.589 216.981 533.751 216.981H536.158C541.249 216.981 546.756 215.764 552.677 213.329C558.598 210.839 563.8 207.878 568.282 204.447C572.765 201.016 576.5 197.447 579.488 193.739C582.532 189.976 584.054 186.767 584.054 184.11C584.054 181.454 583.224 179.075 581.563 176.972C579.903 174.869 577.634 173.209 574.757 171.991C569.112 169.612 562.25 168.422 554.171 168.422C546.147 168.422 536.435 170.525 525.035 174.73C513.691 178.881 505.418 182.948 500.216 186.933ZM640.167 212.914C644.373 212.914 646.476 214.353 646.476 217.23C646.476 218.78 646.116 219.914 645.396 220.634C644.677 221.353 643.128 223.76 640.748 227.855C638.424 231.895 635.823 237.097 632.945 243.461C630.123 249.77 628.297 255.165 627.467 259.647C627.301 260.201 627.218 260.976 627.218 261.972C627.218 265.015 628.048 266.537 629.708 266.537C631.368 266.537 633.333 265.762 635.602 264.213C637.87 262.608 639.89 260.92 641.661 259.149C643.432 257.323 645.147 255.469 646.808 253.588C648.523 251.706 649.547 250.627 649.879 250.351C650.211 250.074 650.709 249.936 651.373 249.936C652.424 249.936 653.061 250.738 653.282 252.343C653.504 253.948 653.614 255.608 653.614 257.323C653.614 259.039 653.448 260.229 653.116 260.893C651.511 264.047 647.97 267.838 642.491 272.265C637.068 276.692 632.115 278.905 627.633 278.905C623.206 278.905 619.941 277.549 617.838 274.838C615.735 272.126 614.684 269.138 614.684 265.873C614.684 262.553 615.237 259.647 616.344 257.157C611.751 263.134 606.466 268.197 600.489 272.348C594.568 276.498 589.726 278.573 585.963 278.573C582.2 278.573 579.129 277.439 576.749 275.17C573.705 272.348 572.184 268.446 572.184 263.466C572.184 258.43 573.29 253.394 575.504 248.358C577.773 243.267 580.733 238.646 584.386 234.496C588.038 230.29 592.05 226.472 596.422 223.041C605.608 215.847 614.075 212.25 621.822 212.25C624.811 212.25 627.245 212.748 629.127 213.744C631.008 214.74 632.198 215.985 632.696 217.479C634.024 215.487 635.131 214.242 636.017 213.744C636.957 213.191 638.341 212.914 640.167 212.914ZM629.127 222.128C619.664 222.128 609.869 227.385 599.742 237.899C596.145 241.662 592.825 246.173 589.781 251.43C586.793 256.687 585.299 260.284 585.299 262.221C585.299 264.158 585.852 265.126 586.959 265.126C588.508 265.126 592.825 262.082 599.908 255.995C606.992 249.853 611.695 245.342 614.02 242.465C616.565 239.255 621.601 232.476 629.127 222.128ZM714.874 151.405C717.53 151.405 719.854 152.208 721.847 153.812C723.894 155.362 724.918 157.686 724.918 160.785C724.918 163.884 723.202 168.754 719.771 175.395C716.34 181.98 712.218 188.731 707.403 195.648C702.589 202.51 697.138 209.815 691.051 217.562C681.422 229.848 672.18 240.888 663.326 250.683C663.271 251.347 663.022 252.592 662.579 254.418C662.192 256.189 661.998 257.987 661.998 259.813C661.998 261.64 662.828 263.3 664.488 264.794C666.204 266.233 668.307 266.952 670.797 266.952C673.287 266.952 675.943 266.067 678.766 264.296C681.643 262.525 684.133 260.561 686.236 258.402C691.77 252.702 695.201 249.853 696.529 249.853C697.857 249.853 698.521 251.872 698.521 255.912V257.572C698.521 259.73 698.134 261.308 697.359 262.304C692.711 268.004 687.481 272.265 681.671 275.087C675.86 277.854 670.354 279.237 665.152 279.237C659.951 279.237 655.994 277.66 653.282 274.506C650.571 271.296 649.215 266.924 649.215 261.391C649.215 250.6 652.092 237.927 657.848 223.373C663.658 208.764 670.188 196.34 677.438 186.103C693.762 162.971 706.241 151.405 714.874 151.405ZM711.139 165.185C711.139 164.354 710.862 163.939 710.309 163.939C708.372 163.939 703.281 169.473 695.035 180.541C686.79 191.609 680.813 200.435 677.105 207.021C673.453 213.606 669.994 221.879 666.729 231.84C673.259 224.092 682.28 212.029 693.79 195.648C705.356 179.213 711.139 169.058 711.139 165.185ZM689.889 276.498L685.821 276.332H684.327C683.774 276.166 683.193 275.834 682.584 275.336C681.92 274.838 681.422 274.478 681.09 274.257C680.758 274.035 680.592 273.648 680.592 273.095C680.592 272.486 680.813 271.462 681.256 270.023C692.047 246.283 702.478 227.302 712.55 213.08C713.657 211.531 715.427 210.368 717.862 209.594C720.353 208.764 722.76 208.349 725.084 208.349C726.467 208.349 727.159 209.428 727.159 211.586C727.159 212.195 726.938 213.025 726.495 214.076C726.052 215.072 724.946 216.732 723.175 219.057C721.404 221.381 719.301 224.037 716.866 227.025C714.431 230.014 713.048 231.729 712.716 232.172C720.297 224.314 727.132 218.476 733.219 214.657C739.361 210.784 743.788 208.847 746.5 208.847C749.267 208.847 751.37 209.649 752.809 211.254C754.303 212.803 755.05 214.491 755.05 216.317C755.05 218.088 754.911 219.582 754.635 220.8C754.413 221.962 753.971 223.207 753.307 224.535C752.643 225.808 752.062 226.915 751.563 227.855C751.121 228.741 750.346 229.931 749.239 231.425C748.132 232.864 747.358 233.86 746.915 234.413C746.528 234.966 745.67 236.018 744.342 237.567C743.069 239.117 742.377 239.975 742.267 240.141C743.816 238.591 745.974 236.295 748.741 233.251C751.508 230.207 753.832 227.662 755.714 225.614C757.651 223.567 760.058 221.27 762.936 218.725C765.813 216.124 768.497 214.021 770.987 212.416C776.964 208.653 783.023 206.771 789.166 206.771C791.269 206.771 793.04 207.436 794.479 208.764C795.917 210.092 796.637 211.697 796.637 213.578C796.637 215.404 794.396 219.831 789.913 226.859C785.431 233.832 780.948 240.86 776.466 247.943C772.039 254.971 769.825 259.398 769.825 261.225C769.825 263.77 770.296 265.292 771.236 265.79C772.177 266.233 773.312 266.399 774.64 266.288C775.968 266.177 777.822 265.32 780.201 263.715C782.636 262.11 784.794 260.45 786.676 258.734C789.719 255.967 792.542 253.284 795.143 250.683C795.696 250.185 796.305 249.936 796.969 249.936C798.02 249.936 798.657 250.738 798.878 252.343C799.099 253.948 799.21 255.608 799.21 257.323C799.21 259.039 799.044 260.229 798.712 260.893C797.107 263.992 793.565 267.782 788.087 272.265C782.608 276.747 777.351 278.988 772.315 278.988C771.707 278.988 771.264 278.961 770.987 278.905C765.287 278.352 761.331 276.802 759.117 274.257C756.959 271.656 755.88 268.585 755.88 265.043C755.88 261.501 757.07 257.213 759.449 252.177C761.884 247.141 764.54 242.576 767.418 238.48C770.296 234.385 772.924 230.705 775.304 227.44C777.739 224.12 778.956 222.322 778.956 222.045C778.956 221.768 778.735 221.63 778.292 221.63C776.576 221.63 772.758 224.397 766.837 229.931C756.71 239.394 747.966 248.524 740.606 257.323C738.67 259.647 734.076 265.541 726.827 275.004C725.997 276.111 724.669 276.664 722.843 276.664C721.072 276.664 719.218 276.332 717.281 275.668C715.344 274.949 714.376 274.035 714.376 272.929C714.376 272.375 718.775 264.628 727.574 249.687C736.373 234.69 740.772 226.527 740.772 225.199C740.772 223.816 739.942 223.124 738.282 223.124C736.677 223.124 733.329 225.559 728.238 230.429C714.238 243.821 703.391 257.13 695.699 270.355C695.201 271.13 694.233 272.348 692.794 274.008C691.355 275.668 690.387 276.498 689.889 276.498ZM846.192 253.173L845.113 255.414C845.113 257.019 847.354 258.568 851.837 260.062C856.375 261.501 861.327 262.221 866.695 262.221C872.118 262.221 878.067 261.418 884.542 259.813C891.017 258.209 896.633 256.244 901.393 253.92C906.207 251.596 910.164 249.161 913.263 246.615C916.417 244.07 917.994 241.856 917.994 239.975C917.994 237.595 915.227 235.382 909.693 233.334C904.16 231.286 896.108 229.045 885.538 226.61C875.024 224.12 867.304 220.993 862.379 217.23C857.509 213.467 855.074 208.902 855.074 203.534C855.074 198.111 857.011 192.937 860.885 188.012C864.758 183.087 869.794 178.715 875.992 174.896C882.245 171.078 889.052 167.675 896.412 164.687C911.63 158.544 925.742 155.473 938.746 155.473C943.727 155.473 948.126 155.915 951.944 156.801C959.249 158.516 962.901 160.785 962.901 163.607C962.901 166.43 962.652 168.367 962.154 169.418C961.656 170.414 961.241 171.078 960.909 171.41C960.632 171.742 960.245 172.074 959.747 172.406C959.304 172.738 958.972 172.987 958.751 173.153C956.316 175.201 949.648 176.474 938.746 176.972C934.983 177.138 932.936 177.331 932.604 177.553C932.271 177.774 931.967 177.885 931.69 177.885C931.469 177.885 931.192 177.663 930.86 177.221C930.528 176.778 930.362 176.059 930.362 175.062C930.362 174.066 931.441 172.24 933.6 169.584C926.848 169.971 919.627 171.521 911.935 174.232C904.298 176.944 897.657 180.015 892.013 183.446C886.368 186.822 881.664 190.17 877.901 193.49C874.138 196.755 872.257 199.079 872.257 200.463C872.257 201.791 872.672 202.898 873.502 203.783C875.826 206.273 882.273 208.874 892.843 211.586C903.8 214.408 911.104 216.677 914.757 218.393C918.409 220.108 921.425 221.741 923.805 223.29C926.24 224.84 928.176 226.417 929.615 228.021C932.991 231.895 934.679 235.824 934.679 239.809C934.679 243.793 933.6 247.528 931.441 251.015C929.339 254.501 926.129 257.877 921.812 261.142C917.551 264.407 912.516 267.312 906.705 269.857C893.977 275.557 878.814 278.407 861.217 278.407C848.378 278.407 840.188 275.004 836.646 268.197C835.706 266.482 835.235 264.711 835.235 262.885C835.235 261.003 835.65 259.315 836.48 257.821C837.366 256.327 838.417 255.193 839.635 254.418C842.014 252.924 843.702 252.177 844.698 252.177C845.694 252.177 846.192 252.509 846.192 253.173ZM988.634 187.68L990.128 187.514C990.958 187.514 991.622 188.233 992.12 189.672C992.618 191.111 992.867 192.079 992.867 192.577C992.867 193.075 992.314 194.016 991.207 195.399L967.55 231.425C975.851 223.124 984.29 217.064 992.867 213.246C996.188 211.807 999.176 211.088 1001.83 211.088C1004.54 211.088 1006.7 211.973 1008.31 213.744C1009.97 215.46 1010.8 217.618 1010.8 220.219C1010.8 222.82 1010.08 226.029 1008.64 229.848C1007.2 233.666 1005.24 237.733 1002.75 242.05C1000.31 246.366 997.322 250.71 993.78 255.082C990.294 259.454 986.614 263.41 982.74 266.952C978.922 270.494 974.744 273.371 970.206 275.585C965.668 277.799 961.684 278.905 958.253 278.905C951.336 278.905 947.877 275.723 947.877 269.359C941.402 279.265 933.932 290.997 925.465 304.555C916.998 318.113 912.46 325.279 911.852 326.054C911.243 326.828 910.745 327.216 910.357 327.216C909.915 327.216 909.278 326.967 908.448 326.469C907.563 325.971 906.65 325.141 905.709 323.979C904.768 322.816 904.298 321.129 904.298 318.915C904.243 316.701 904.879 314.46 906.207 312.191C913.678 299.74 928.066 276.332 949.371 241.967C970.732 207.546 982.298 189.755 984.068 188.593C985.064 187.929 986.061 187.597 987.057 187.597L988.634 187.68ZM995.938 225.863C995.938 224.701 995.385 224.12 994.278 224.12C991.29 224.12 984.954 228.713 975.27 237.899C965.641 247.086 957.976 255.469 952.276 263.051C953.715 264.822 955.846 265.707 958.668 265.707C961.49 265.707 965.143 264.185 969.625 261.142C974.107 258.098 978.258 254.501 982.076 250.351C985.895 246.145 989.16 241.745 991.871 237.152C994.583 232.559 995.938 228.796 995.938 225.863ZM1036.11 230.761C1049.17 215.93 1060.3 208.515 1069.48 208.515C1071.75 208.515 1073.61 209.206 1075.04 210.59C1076.54 211.918 1077.29 213.661 1077.29 215.819C1077.29 217.978 1075.74 221.602 1072.64 226.693C1069.59 231.729 1066.77 235.99 1064.17 239.477C1062.79 241.247 1061.21 242.133 1059.44 242.133C1057.72 242.133 1056.37 241.496 1055.37 240.224C1054.43 238.951 1053.96 237.457 1053.96 235.741C1053.96 231.923 1056.01 227.606 1060.1 222.792L1059.94 222.626C1058.11 222.792 1053.57 226.389 1046.32 233.417C1039.13 240.445 1032.99 246.754 1027.9 252.343C1022.86 257.877 1017.38 264.628 1011.46 272.597C1009.75 274.976 1008.28 276.166 1007.06 276.166C1005.9 276.166 1004.35 275.806 1002.41 275.087C1000.42 274.312 999.231 273.759 998.844 273.427C998.401 273.095 998.18 272.541 998.18 271.767C998.18 270.992 998.401 270.106 998.844 269.11C999.286 268.059 1000.12 266.592 1001.33 264.711C1002.5 262.829 1004.27 259.786 1006.65 255.58C1009.08 251.374 1012.84 245.01 1017.94 236.488C1023.03 227.966 1026.07 222.82 1027.07 221.049C1029.17 217.396 1030.88 214.74 1032.21 213.08C1034.7 209.926 1038.91 208.349 1044.83 208.349C1046.16 208.349 1046.82 209.179 1046.82 210.839C1046.82 213.44 1044.42 218.337 1039.6 225.531L1036.11 230.761ZM1122.44 184.857C1122.44 188.012 1120.98 191.194 1118.04 194.403C1115.11 197.558 1112.04 199.135 1108.83 199.135C1105.67 199.135 1104.1 197.475 1104.1 194.154C1104.1 190.834 1105.48 187.68 1108.25 184.691C1111.07 181.648 1114.17 180.126 1117.54 180.126C1119.04 180.126 1120.23 180.541 1121.11 181.371C1122 182.201 1122.44 183.363 1122.44 184.857ZM1109 257.323C1109 258.983 1108.83 260.173 1108.5 260.893C1105.79 266.426 1101.47 270.909 1095.55 274.34C1089.63 277.715 1084.48 279.403 1080.11 279.403C1075.74 279.403 1071.97 277.937 1068.82 275.004C1065.67 272.071 1064.09 269.083 1064.09 266.039C1064.09 262.995 1065.61 258.568 1068.65 252.758C1071.7 246.947 1074.74 241.579 1077.78 236.654C1080.83 231.729 1082.35 229.073 1082.35 228.686C1082.35 228.243 1081.77 227.413 1080.61 226.195C1079.5 224.978 1078.95 224.092 1078.95 223.539C1078.95 222.93 1080.08 221.409 1082.35 218.974C1084.67 216.483 1087.47 214.049 1090.73 211.669C1094.05 209.234 1096.57 208.017 1098.29 208.017C1100.06 208.017 1101.64 208.791 1103.02 210.341C1104.4 211.89 1105.09 213.301 1105.09 214.574C1105.09 215.847 1098.51 227.828 1085.34 250.517C1085.17 250.849 1084.7 251.596 1083.93 252.758C1083.21 253.865 1082.63 254.805 1082.18 255.58C1081.8 256.299 1081.33 257.185 1080.77 258.236C1079.67 260.45 1079.11 262.304 1079.11 263.798C1079.11 265.679 1080.39 266.62 1082.93 266.62C1085.48 266.62 1088.1 265.762 1090.82 264.047C1093.58 262.276 1095.96 260.339 1097.96 258.236C1103.16 252.647 1106.12 249.853 1106.84 249.853C1108.28 249.853 1109 252.343 1109 257.323ZM1146.27 263.217C1146.27 265.652 1147.93 266.869 1151.25 266.869C1153.02 266.869 1155.23 265.984 1157.89 264.213C1160.6 262.442 1163.03 260.505 1165.19 258.402C1170.95 252.702 1174.21 249.853 1174.99 249.853C1176.43 249.853 1177.14 251.928 1177.14 256.078C1177.14 260.229 1175.84 263.078 1173.24 264.628C1165.33 271.767 1159.21 276.111 1154.9 277.66C1152.46 278.49 1149.78 278.878 1146.85 278.822C1143.91 278.767 1141.01 277.494 1138.13 275.004C1135.25 272.514 1133.81 269.498 1133.81 265.956C1133.81 262.359 1134.76 258.292 1136.64 253.754C1138.52 249.216 1140.43 245.342 1142.36 242.133C1144.36 238.868 1146.79 235.105 1149.67 230.844C1152.55 226.527 1154.07 223.843 1154.23 222.792L1154.07 222.626C1152.24 222.792 1147.7 226.389 1140.46 233.417C1133.26 240.445 1127.31 246.56 1122.61 251.762C1117.9 256.964 1112.29 263.909 1105.76 272.597C1103.93 274.976 1102.44 276.166 1101.28 276.166C1100.11 276.166 1098.56 275.806 1096.63 275.087C1094.63 274.312 1093.42 273.759 1092.97 273.427C1092.53 273.095 1092.31 272.597 1092.31 271.933C1092.31 271.269 1092.5 270.466 1092.89 269.525C1093.28 268.529 1093.67 267.727 1094.05 267.118C1094.39 266.454 1094.97 265.458 1095.8 264.13C1096.63 262.802 1098.26 260.007 1100.69 255.746C1103.18 251.43 1106.98 245.01 1112.07 236.488C1117.16 227.966 1120.2 222.82 1121.2 221.049C1123.3 217.396 1125.02 214.74 1126.34 213.08C1128.83 209.926 1133.04 208.349 1138.96 208.349C1140.29 208.349 1140.95 209.179 1140.95 210.839C1140.95 213.44 1138.55 218.337 1133.73 225.531L1130.25 230.761C1139.82 220.136 1147.9 213.412 1154.48 210.59C1157.69 209.206 1160.57 208.515 1163.12 208.515C1165.72 208.515 1167.76 209.206 1169.26 210.59C1170.81 211.973 1171.58 213.523 1171.58 215.238C1171.58 216.898 1171 218.918 1169.84 221.298C1168.68 223.622 1167.49 225.725 1166.27 227.606C1165.11 229.433 1163.56 231.757 1161.62 234.579C1159.69 237.401 1158.63 238.951 1158.47 239.228C1158.3 239.449 1157.86 240.113 1157.14 241.22C1156.48 242.271 1155.98 243.046 1155.65 243.544C1155.31 244.042 1154.76 244.927 1153.99 246.2C1153.21 247.418 1152.57 248.441 1152.08 249.271C1151.63 250.102 1151.05 251.125 1150.33 252.343C1149.67 253.56 1149.12 254.612 1148.67 255.497C1148.29 256.382 1147.87 257.351 1147.43 258.402C1146.65 260.339 1146.27 261.944 1146.27 263.217ZM1195.16 220.883C1200.53 217.175 1205.78 214.325 1210.93 212.333C1216.08 210.341 1220.53 209.345 1224.29 209.345C1228.06 209.345 1230.46 210.424 1231.51 212.582C1233.67 210.092 1236.36 208.764 1239.57 208.598C1240.51 208.542 1241.67 208.515 1243.05 208.515C1244.44 208.515 1245.29 208.708 1245.63 209.096C1245.96 209.428 1246.26 210.092 1246.54 211.088C1246.82 212.084 1246.98 212.637 1247.04 212.748C1247.09 212.859 1247.12 213.052 1247.12 213.329C1247.12 213.55 1246.98 213.855 1246.71 214.242C1246.43 214.574 1246.1 214.906 1245.71 215.238C1245.38 215.57 1245.18 215.764 1245.13 215.819C1232.9 233.362 1220.39 253.367 1207.61 275.834C1220.78 264.158 1232.57 255.774 1242.97 250.683C1243.63 250.351 1244.27 250.185 1244.88 250.185C1245.76 250.185 1246.35 250.766 1246.62 251.928C1246.9 253.035 1247.04 254.639 1247.04 256.742C1247.04 258.845 1246.9 260.146 1246.62 260.644C1246.4 261.142 1245.13 262.138 1242.8 263.632C1240.48 265.126 1237.46 267.063 1233.76 269.442C1230.05 271.822 1226.12 274.451 1221.97 277.328C1212.01 284.245 1203.82 291.522 1197.4 299.159C1189.1 309.175 1183.15 317.255 1179.55 323.397C1178.22 325.777 1175.98 326.967 1172.83 326.967C1166.57 326.967 1163.45 324.006 1163.45 318.085C1163.45 312.053 1166.41 305.883 1172.33 299.574C1176.76 294.87 1180.82 291.024 1184.53 288.036C1188.24 285.048 1190.26 283.36 1190.59 282.973C1194.69 276.83 1200.25 268.114 1207.28 256.825C1201.3 263.078 1195.49 268.059 1189.84 271.767C1184.26 275.474 1180.08 277.328 1177.31 277.328C1168.84 277.328 1164.61 273.703 1164.61 266.454C1164.61 260.699 1166.08 254.888 1169.01 249.022C1171.94 243.157 1175.71 237.927 1180.3 233.334C1184.89 228.686 1189.84 224.535 1195.16 220.883ZM1226.78 218.725C1220.36 220.108 1214.33 222.405 1208.69 225.614C1203.04 228.769 1198.39 232.172 1194.74 235.824C1191.09 239.421 1187.94 243.129 1185.28 246.947C1180.3 254.086 1177.81 259.62 1177.81 263.549C1177.81 264.49 1178.03 264.96 1178.47 264.96C1178.97 264.96 1180.02 264.462 1181.63 263.466C1183.29 262.47 1185.61 260.782 1188.6 258.402C1191.59 255.967 1194.91 253.09 1198.56 249.77C1207.03 241.967 1216.43 231.618 1226.78 218.725ZM1249.69 259.398L1249.61 260.727C1249.61 262.11 1250.14 263.3 1251.19 264.296C1252.24 265.292 1253.21 265.79 1254.09 265.79C1260.73 265.79 1266.6 264.794 1271.69 262.802C1276.84 260.81 1279.41 258.817 1279.41 256.825C1279.41 255.884 1278.47 255.082 1276.59 254.418C1274.76 253.699 1271.64 252.841 1267.21 251.845C1262.84 250.793 1259.65 249.991 1257.66 249.438C1255.67 248.829 1254.09 248.275 1252.93 247.777C1251.77 247.279 1250.58 246.588 1249.36 245.702C1246.76 243.876 1245.46 241.164 1245.46 237.567C1245.46 233.915 1246.79 230.318 1249.44 226.776C1252.16 223.179 1255.53 220.108 1259.57 217.562C1263.61 215.017 1267.96 212.776 1272.6 210.839C1281.79 207.021 1289.51 205.111 1295.76 205.111C1301.91 205.111 1305.7 206.439 1307.13 209.096C1307.58 210.036 1307.8 211.088 1307.8 212.25V212.831C1307.8 215.764 1307.16 218.061 1305.89 219.721C1304.67 221.381 1302.71 222.875 1300 224.203C1297.34 225.531 1295.21 226.195 1293.6 226.195C1292.06 226.195 1291.06 226.085 1290.62 225.863C1290.23 225.642 1289.9 225.365 1289.62 225.033C1289.34 224.646 1288.98 224.369 1288.54 224.203C1288.15 224.037 1287.96 223.622 1287.96 222.958C1287.96 222.294 1288.24 221.63 1288.79 220.966C1289.34 220.246 1289.73 219.499 1289.95 218.725C1286.3 218.891 1282.48 219.748 1278.5 221.298C1274.51 222.792 1271.08 224.48 1268.2 226.361C1265.38 228.243 1263.03 230.041 1261.15 231.757C1259.27 233.472 1258.33 234.745 1258.33 235.575C1258.33 236.35 1259.6 236.986 1262.14 237.484C1273.6 239.753 1281.13 241.718 1284.72 243.378C1288.32 245.038 1290.81 246.92 1292.19 249.022C1293.58 251.125 1294.27 253.035 1294.27 254.75C1294.27 258.292 1292.86 261.64 1290.04 264.794C1287.21 267.948 1283.73 270.521 1279.58 272.514C1270.67 276.885 1262.89 279.071 1256.25 279.071C1249.67 279.071 1245.1 278.048 1242.55 276C1240.06 274.008 1238.82 271.628 1238.82 268.861C1238.82 266.094 1239.51 263.549 1240.89 261.225C1242.33 258.845 1244.16 257.655 1246.37 257.655C1248.59 257.655 1249.69 258.236 1249.69 259.398Z" fill="#3D405B"/>
<path d="M644.38 347.5L624.94 442H614.68L593.215 360.73L571.615 442H561.355L541.78 347.5H552.58L567.025 427.42L587.815 347.5H598.345L619.135 427.42L633.58 347.5H644.38ZM709.43 412.03H660.29C660.83 419.5 662.945 425.26 666.635 429.31C670.415 433.36 675.5 435.385 681.89 435.385C685.94 435.385 689.63 434.53 692.96 432.82C696.29 431.02 699.035 428.545 701.195 425.395L706.73 430.66C704.12 434.71 700.61 437.86 696.2 440.11C691.88 442.27 687.02 443.35 681.62 443.35C671.99 443.35 664.43 440.29 658.94 434.17C653.54 427.96 650.84 419.365 650.84 408.385C650.84 397.405 653.495 388.81 658.805 382.6C664.205 376.3 671.63 373.15 681.08 373.15C689.99 373.15 696.92 376.165 701.87 382.195C706.91 388.225 709.43 396.64 709.43 407.44V412.03ZM700.79 403.66C700.79 396.64 698.99 391.105 695.39 387.055C691.79 382.915 686.93 380.845 680.81 380.845C674.69 380.845 669.83 382.915 666.23 387.055C662.72 391.195 660.74 397.09 660.29 404.74H700.79V403.66ZM753.813 443.35C749.313 443.35 745.038 442.18 740.988 439.84C737.028 437.5 734.103 434.44 732.213 430.66H731.943C731.943 434.53 731.808 438.31 731.538 442H723.168C723.438 438.85 723.573 433.27 723.573 425.26V341.83H732.888V384.355H733.158C735.408 380.665 738.288 377.875 741.798 375.985C745.308 374.095 749.358 373.15 753.948 373.15C762.588 373.15 769.428 376.21 774.468 382.33C779.598 388.45 782.163 396.685 782.163 407.035C782.163 414.415 780.993 420.85 778.653 426.34C776.403 431.74 773.118 435.925 768.798 438.895C764.568 441.865 759.573 443.35 753.813 443.35ZM752.868 435.655C758.988 435.655 763.803 433.135 767.313 428.095C770.913 422.965 772.713 416.035 772.713 407.305C772.713 399.025 770.913 392.5 767.313 387.73C763.803 382.96 758.988 380.575 752.868 380.575C746.838 380.575 741.978 382.645 738.288 386.785C734.688 390.835 732.888 396.325 732.888 403.255V415C732.888 421.39 734.688 426.43 738.288 430.12C741.888 433.81 746.748 435.655 752.868 435.655ZM832.134 347.5H861.159C873.489 347.5 882.624 351.235 888.564 358.705C894.504 366.085 897.474 377.47 897.474 392.86C897.474 404.47 896.079 413.875 893.289 421.075C890.589 428.275 886.314 433.585 880.464 437.005C874.614 440.335 866.919 442 857.379 442H832.134V347.5ZM859.539 433.63C869.259 433.63 876.369 430.39 880.869 423.91C885.369 417.34 887.619 406.99 887.619 392.86C887.619 379.99 885.504 370.63 881.274 364.78C877.044 358.84 870.249 355.87 860.889 355.87H842.124V433.63H859.539ZM967.697 412.03H918.557C919.097 419.5 921.212 425.26 924.902 429.31C928.682 433.36 933.767 435.385 940.157 435.385C944.207 435.385 947.897 434.53 951.227 432.82C954.557 431.02 957.302 428.545 959.462 425.395L964.997 430.66C962.387 434.71 958.877 437.86 954.467 440.11C950.147 442.27 945.287 443.35 939.887 443.35C930.257 443.35 922.697 440.29 917.207 434.17C911.807 427.96 909.107 419.365 909.107 408.385C909.107 397.405 911.762 388.81 917.072 382.6C922.472 376.3 929.897 373.15 939.347 373.15C948.257 373.15 955.187 376.165 960.137 382.195C965.177 388.225 967.697 396.64 967.697 407.44V412.03ZM959.057 403.66C959.057 396.64 957.257 391.105 953.657 387.055C950.057 382.915 945.197 380.845 939.077 380.845C932.957 380.845 928.097 382.915 924.497 387.055C920.987 391.195 919.007 397.09 918.557 404.74H959.057V403.66ZM1001.89 443.35C997.122 443.35 992.757 442.36 988.797 440.38C984.927 438.4 982.137 435.79 980.427 432.55L986.637 428.23C988.257 430.75 990.417 432.685 993.117 434.035C995.817 435.295 998.877 435.925 1002.3 435.925C1006.35 435.925 1009.68 434.755 1012.29 432.415C1014.9 429.985 1016.2 426.925 1016.2 423.235C1016.2 420.265 1015.12 417.79 1012.96 415.81C1010.89 413.74 1007.25 411.715 1002.03 409.735C994.557 406.945 989.292 404.065 986.232 401.095C983.262 398.125 981.777 394.435 981.777 390.025C981.777 384.985 983.757 380.935 987.717 377.875C991.677 374.725 996.942 373.15 1003.51 373.15C1007.74 373.15 1011.61 374.095 1015.12 375.985C1018.72 377.875 1021.38 380.44 1023.09 383.68L1017.15 388C1014.09 383.05 1009.5 380.575 1003.38 380.575C999.777 380.575 996.807 381.43 994.467 383.14C992.217 384.85 991.092 387.055 991.092 389.755C991.092 392.365 992.217 394.615 994.467 396.505C996.717 398.305 1000.9 400.33 1007.02 402.58C1013.68 405.19 1018.45 408.07 1021.33 411.22C1024.21 414.37 1025.65 418.285 1025.65 422.965C1025.65 429.085 1023.49 434.035 1019.17 437.815C1014.85 441.505 1009.09 443.35 1001.89 443.35ZM1046.6 361.405C1044.44 361.405 1042.69 360.775 1041.34 359.515C1040.08 358.255 1039.45 356.59 1039.45 354.52C1039.45 352.36 1040.08 350.65 1041.34 349.39C1042.69 348.13 1044.44 347.5 1046.6 347.5C1048.76 347.5 1050.47 348.13 1051.73 349.39C1053.08 350.65 1053.76 352.36 1053.76 354.52C1053.76 356.59 1053.08 358.255 1051.73 359.515C1050.47 360.775 1048.76 361.405 1046.6 361.405ZM1041.88 374.5H1051.33V442H1041.88V374.5ZM1126.16 374.5V439.975C1126.16 450.595 1123.55 458.65 1118.33 464.14C1113.2 469.63 1105.69 472.375 1095.79 472.375C1086.88 472.375 1078.91 470.44 1071.89 466.57L1075 459.415C1078.51 461.125 1081.88 462.34 1085.12 463.06C1088.36 463.87 1091.83 464.275 1095.52 464.275C1102.9 464.275 1108.39 462.16 1111.99 457.93C1115.59 453.79 1117.39 447.355 1117.39 438.625V431.875C1115.41 435.385 1112.53 438.175 1108.75 440.245C1105.06 442.225 1100.83 443.215 1096.06 443.215C1087.24 443.215 1080.26 440.02 1075.13 433.63C1070.09 427.15 1067.57 418.285 1067.57 407.035C1067.57 396.595 1070.09 388.36 1075.13 382.33C1080.26 376.21 1087.19 373.15 1095.92 373.15C1100.51 373.15 1104.61 374.14 1108.21 376.12C1111.9 378.1 1114.78 380.935 1116.85 384.625H1117.12L1118.47 374.5H1126.16ZM1116.85 403.66C1116.85 396.55 1115.05 390.925 1111.45 386.785C1107.94 382.645 1103.17 380.575 1097.14 380.575C1090.93 380.575 1086.02 382.96 1082.42 387.73C1078.82 392.5 1077.02 399.025 1077.02 407.305C1077.02 416.125 1078.78 423.055 1082.29 428.095C1085.89 433.045 1090.84 435.52 1097.14 435.52C1103.26 435.52 1108.07 433.675 1111.58 429.985C1115.09 426.205 1116.85 421.075 1116.85 414.595V403.66ZM1143.99 391.24C1143.99 383.32 1143.86 377.74 1143.59 374.5H1152.09C1152.45 377.56 1152.63 381.835 1152.63 387.325H1153.04C1155.02 383.005 1158.12 379.585 1162.35 377.065C1166.58 374.455 1171.22 373.15 1176.26 373.15C1184.09 373.15 1189.98 375.715 1193.94 380.845C1197.9 385.975 1199.88 393.58 1199.88 403.66V442H1190.57V403.525C1190.57 395.875 1189.26 390.205 1186.65 386.515C1184.04 382.735 1180.08 380.845 1174.77 380.845C1170.72 380.845 1167.08 381.925 1163.84 384.085C1160.6 386.155 1158.03 389.035 1156.14 392.725C1154.34 396.415 1153.44 400.555 1153.44 405.145V442H1143.99V391.24Z" fill="#4E5170"/>
<path d="M176.014 444.63L172.02 471.294C171.733 473.209 169.194 473.682 168.292 471.989L122.243 385.601C121.411 384.039 122.874 382.215 124.569 382.7L213.531 408.161C215.208 408.641 215.473 410.919 213.957 411.82L195.267 422.919C194.1 423.612 193.922 425.239 194.914 426.143L234.71 462.414C235.417 463.058 235.561 464.123 235.054 464.95L225.148 481.105C224.493 482.174 223.047 482.4 222.126 481.578L179.315 443.392C178.135 442.34 176.251 443.047 176.014 444.63Z" fill="#C0A57C"/>
<rect x="224.734" y="271.144" width="24.2116" height="213.744" rx="3" fill="#BB806F"/>
<path d="M190.426 267.934C204.917 256.504 221.454 242.559 228.324 241.188L231.981 262.105L190.426 338.573C189.761 336.744 188.497 329.589 188.763 315.598C189.029 301.608 191.312 295.367 192.42 293.995L167.154 319.027C168.152 313.541 170.878 300.442 173.803 291.938C178.05 279.593 184.774 272.392 190.426 267.934Z" fill="#8BCAAB" stroke="white" stroke-width="3"/>
<path d="M283.511 267.934C269.02 256.504 250.82 243.245 243.95 241.874L239.96 255.933L283.511 338.573C284.176 336.745 285.439 329.589 285.173 315.599C284.907 301.608 282.624 295.367 281.516 293.995L306.782 319.028C305.785 313.541 303.059 300.442 300.133 291.938C295.887 279.593 289.163 272.392 283.511 267.934Z" fill="#8BCAAB" stroke="white" stroke-width="3"/>
<path d="M284.509 227.471C267.488 228.294 245.391 235.244 239.961 238.444L241.956 247.36C272.984 249.303 339.362 250.309 336.703 245.645C333.378 239.816 305.785 226.442 284.509 227.471Z" fill="#8BCAAB" stroke="white" stroke-width="3"/>
<path d="M190.844 227.471C207.865 228.294 222.98 234.901 228.41 238.101V245.645C197.382 247.588 135.99 250.309 138.65 245.645C141.974 239.816 169.567 226.442 190.844 227.471Z" fill="#8BCAAB" stroke="white" stroke-width="3"/>
<path d="M244.627 190.756C237.674 208.153 234.01 225.404 234.503 232.605L244.946 245.302L254.969 226.593L310.777 172.473C308.893 172.284 301.865 172.878 288.832 176.764C275.799 180.65 270.546 184.539 269.548 185.998L286.451 154.347C281.571 156.76 270.01 162.867 262.803 167.982C252.342 175.409 247.339 183.972 244.627 190.756Z" fill="#8BCAAB" stroke="white" stroke-width="3"/>
<path d="M231.466 190.756C238.419 208.153 242.083 225.404 241.589 232.605L227.992 246.331L214.852 224.392L165.315 172.473C167.2 172.284 174.228 172.878 187.261 176.764C200.293 180.65 205.547 184.539 206.545 185.998L189.642 154.347C194.522 156.76 206.083 162.867 213.29 167.982C223.751 175.409 228.754 183.972 231.466 190.756Z" fill="#8BCAAB" stroke="white" stroke-width="3"/>
<path d="M258.839 256.821C258.839 270.544 248.846 281.396 236.839 281.396C224.832 281.396 214.84 270.544 214.84 256.821C214.84 243.098 224.832 232.246 236.839 232.246C248.846 232.246 258.839 243.098 258.839 256.821Z" fill="#CFB691" stroke="white" stroke-width="3"/>
<path d="M190.043 73C313.02 73 406 166.507 406 282.595" stroke="url(#paint0_linear_17_126)" stroke-width="7" stroke-linecap="round"/>
<defs>
<linearGradient id="paint0_linear_17_126" x1="298.021" y1="73" x2="298.021" y2="282.595" gradientUnits="userSpaceOnUse">
<stop stop-color="#D4922B" stop-opacity="0"/>
<stop offset="0.495" stop-color="#FEB542"/>
<stop offset="1" stop-color="#D4922B" stop-opacity="0"/>
</linearGradient>
</defs>
</svg>
